<svg width="64" height="55" viewBox="0 0 64 64" fill="none" xmlns="http://www.w3.org/2000/svg">
<circle cx="32" cy="32" r="32" fill="url(#paint0_linear_222587_193)"/>
<path fill-rule="evenodd" clip-rule="evenodd" d="M27.138 13.1124C26.8114 13.2601 26.2683 13.8527 26.1367 14.2047C26.0853 14.3424 26.0482 17.0284 26.0482 20.6143V26.7867L19.5224 26.8133L12.9967 26.8401L12.6508 27.059C11.9902 27.477 12 27.3942 12 32.5629V37.1942L12.2136 37.5135C12.3311 37.6891 12.5477 37.9237 12.6951 38.0349C12.96 38.2347 13.036 38.2372 19.5056 38.263L26.0482 38.2891L26.0503 44.4443C26.0523 50.222 26.0631 50.6232 26.2276 50.9859C26.4303 51.4329 26.7422 51.7505 27.1222 51.8969C27.2964 51.9642 28.8096 52 31.4686 52C35.3737 52 35.5638 51.9917 35.9236 51.8049C36.1302 51.6976 36.4169 51.4292 36.5605 51.2083C36.8657 50.739 36.8411 51.3817 36.8581 43.4282L36.8691 38.2852L43.2525 38.2831C49.2612 38.281 49.6585 38.2704 50.023 38.1021C50.4747 37.8933 50.782 37.5308 50.9226 37.0407C50.9883 36.8116 51.0127 35.1966 50.9938 32.3453C50.9669 28.3258 50.9513 27.9718 50.7869 27.635C50.6891 27.4348 50.4755 27.174 50.3123 27.0555L50.0155 26.8401L43.4423 26.814L36.8691 26.7879L36.8571 25.3653C36.8505 24.5829 36.8185 21.7225 36.7859 19.0091L36.7267 14.0757L36.4607 13.7211C35.9289 13.012 36.0628 13.0314 31.5061 13.0058C28.2597 12.9876 27.3659 13.0094 27.138 13.1124Z" fill="black"/>
<defs>
<linearGradient id="paint0_linear_222587_193" x1="42.7614" y1="-57.5" x2="85.2176" y2="46.6021" gradientUnits="userSpaceOnUse">
<stop stop-color="#F1FAFF"/>
<stop offset="0.125" stop-color="#CEE5FF"/>
<stop offset="0.265" stop-color="#B1E3FF"/>
<stop offset="0.375" stop-color="#9ADBFF"/>
<stop offset="0.5" stop-color="#7DD0FE"/>
<stop offset="0.625" stop-color="#67C9FF"/>
<stop offset="0.75" stop-color="#49BCFD"/>
<stop offset="0.875" stop-color="#2FB4FF"/>
<stop offset="1" stop-color="#15ABFF"/>
</linearGradient>
</defs>
</svg>
